<svg xmlns="http://www.w3.org/2000/svg" viewBox="0 0 1200 800" role="img" aria-labelledby="title desc">
  <title id="title">Food Truck Finder photo pending</title>
  <desc id="desc">A branded placeholder for claimable food truck listings awaiting owner-provided photos.</desc>
  <defs>
    <linearGradient id="sky" x1="0" y1="0" x2="1" y2="1">
      <stop offset="0" stop-color="#f7d06c"/>
      <stop offset="0.48" stop-color="#f36f45"/>
      <stop offset="1" stop-color="#1c6b68"/>
    </linearGradient>
    <radialGradient id="glow" cx="32%" cy="28%" r="72%">
      <stop offset="0" stop-color="#fff6cf" stop-opacity="0.8"/>
      <stop offset="1" stop-color="#fff6cf" stop-opacity="0"/>
    </radialGradient>
    <filter id="shadow" x="-20%" y="-20%" width="140%" height="140%">
      <feDropShadow dx="0" dy="18" stdDeviation="20" flood-color="#102a2a" flood-opacity="0.28"/>
    </filter>
  </defs>
  <rect width="1200" height="800" fill="url(#sky)"/>
  <rect width="1200" height="800" fill="url(#glow)"/>
  <circle cx="965" cy="150" r="96" fill="#ffe9a8" opacity="0.55"/>
  <path d="M0 610 C170 540 320 610 475 565 C660 510 850 560 1200 500 L1200 800 L0 800 Z" fill="#174846" opacity="0.95"/>
  <path d="M0 675 C200 630 355 688 540 650 C748 608 960 646 1200 592 L1200 800 L0 800 Z" fill="#123432"/>
  <g filter="url(#shadow)">
    <path d="M253 318 h545 c44 0 82 29 94 71 l38 132 h-84 c-22-48-70-81-126-81s-104 33-126 81H438c-22-48-70-81-126-81s-104 33-126 81h-66v-91c0-62 50-112 112-112h21z" fill="#fff5da"/>
    <path d="M798 318 h80 c62 0 112 50 112 112v91h-60l-38-132c-12-42-50-71-94-71z" fill="#ffd166"/>
    <rect x="246" y="350" width="285" height="122" rx="16" fill="#1c6b68"/>
    <rect x="565" y="350" width="160" height="122" rx="16" fill="#f36f45"/>
    <path d="M257 332 h316 l-38 150 H245z" fill="#ffffff" opacity="0.18"/>
    <rect x="155" y="490" width="720" height="60" rx="14" fill="#f36f45"/>
    <rect x="180" y="408" width="75" height="70" rx="12" fill="#ffd166"/>
    <circle cx="312" cy="530" r="72" fill="#153a3a"/>
    <circle cx="312" cy="530" r="35" fill="#fff5da"/>
    <circle cx="720" cy="530" r="72" fill="#153a3a"/>
    <circle cx="720" cy="530" r="35" fill="#fff5da"/>
  </g>
  <g fill="#fff5da">
    <text x="600" y="190" text-anchor="middle" font-family="Verdana, Geneva, sans-serif" font-size="54" font-weight="700">Food Truck Finder</text>
    <text x="600" y="248" text-anchor="middle" font-family="Verdana, Geneva, sans-serif" font-size="30" font-weight="600" opacity="0.92">Photo pending owner upload</text>
  </g>
  <g fill="#fff5da" opacity="0.22">
    <circle cx="96" cy="116" r="12"/>
    <circle cx="145" cy="168" r="8"/>
    <circle cx="1090" cy="296" r="10"/>
    <circle cx="1044" cy="248" r="7"/>
  </g>
</svg>
